<svg xmlns="http://www.w3.org/2000/svg" width="320" height="320" viewBox="0 0 320 320"><defs><clipPath id="bc1"><path d="M86.566 9C86.566 40.891 66.089 66.745 40.828 66.745C15.568 66.745 -4.91 40.891 -4.91 9C-4.91 -22.891 15.568 -48.745 40.828 -48.745C66.089 -48.745 86.566 -22.891 86.566 9" transform="matrix(1.002 -0.138 0.138 1.008 160 155.042)"/></clipPath></defs><path d="M69.621 126C69.621 132.075 38.451 137 0 137C-38.451 137 -69.621 132.075 -69.621 126C-69.621 119.925 -38.451 115 0 115C38.451 115 69.621 119.925 69.621 126" fill="rgba(22,22,26,0.13)" fill-opacity="0.799" transform="matrix(1 0 0 1 160 160)"/><path d="M97 0C97 55.714 53.572 100.88 0 100.88C-53.572 100.88 -97 55.714 -97 0C-97 -55.714 -53.572 -100.88 0 -100.88C53.572 -100.88 97 -55.714 97 0" fill="#16161A" fill-opacity="0.023" transform="matrix(0.999 -0.042 0.042 0.999 160 160.558)"/><path d="M97 0C97 55.714 53.572 100.88 0 100.88C-53.572 100.88 -97 55.714 -97 0C-97 -55.714 -53.572 -100.88 0 -100.88C53.572 -100.88 97 -55.714 97 0" fill="#16161A" fill-opacity="0.034" transform="matrix(0.998 -0.062 0.062 0.998 160 159.954)"/><path d="M4.165 0C4.165 8.105 2.3 14.676 0 14.676C-2.3 14.676 -4.165 8.105 -4.165 0C-4.165 -8.105 -2.3 -14.676 0 -14.676C2.3 -14.676 4.165 -8.105 4.165 0" fill="#1478C9" fill-opacity="0.422" transform="matrix(0.94 -0.373 0.373 0.947 246.456 77.616)"/><path d="M85.643 2C85.643 56.566 44.006 100.8 -7.357 100.8C-58.719 100.8 -100.357 56.566 -100.357 2C-100.357 -52.566 -58.719 -96.8 -7.357 -96.8C44.006 -96.8 85.643 -52.566 85.643 2" fill="#16161A" transform="matrix(1.002 -0.138 0.138 1.008 160 155.042)"/><path d="M100 0C100 57.438 55.228 104 0 104C-55.228 104 -100 57.438 -100 0C-100 -57.438 -55.228 -104 0 -104C55.228 -104 100 -57.438 100 0" fill="#16161A" transform="matrix(1.002 -0.138 0.138 1.008 160 155.042)"/><path d="M86.566 9C86.566 40.891 66.089 66.745 40.828 66.745C15.568 66.745 -4.91 40.891 -4.91 9C-4.91 -22.891 15.568 -48.745 40.828 -48.745C66.089 -48.745 86.566 -22.891 86.566 9" fill="#FFFFFF" transform="matrix(1.002 -0.138 0.138 1.008 160 155.042)"/><path d="M9 0C9 3.038 4.971 5.5 0 5.5C-4.971 5.5 -9 3.038 -9 0C-9 -3.038 -4.971 -5.5 0 -5.5C4.971 -5.5 9 -3.038 9 0" fill="rgba(255,138,168,0.42)" fill-opacity="0.55" transform="matrix(0.97 -0.133 0.132 0.961 172.621 183.103)"/><path d="M9 0C9 3.038 4.971 5.5 0 5.5C-4.971 5.5 -9 3.038 -9 0C-9 -3.038 -4.971 -5.5 0 -5.5C4.971 -5.5 9 -3.038 9 0" fill="rgba(255,138,168,0.42)" fill-opacity="0.55" transform="matrix(0.561 -0.077 0.132 0.961 225.669 175.819)"/><g clip-path="url(#bc1)"><path d="M0 0L-0.204 0.024L-0.408 -0.044L-0.583 -0.201L-0.698 -0.434L-0.73 -0.722L-0.661 -1.04L-0.482 -1.354L-0.192 -1.632L0.198 -1.838L0.669 -1.942L1.192 -1.919L1.734 -1.751L2.253 -1.432L2.709 -0.963L3.059 -0.36L3.267 0.352L3.301 1.137L3.14 1.951L2.773 2.745L2.202 3.467L1.445 4.063L0.528 4.487L-0.505 4.696L-1.605 4.66L-2.71 4.361L-3.757 3.794L-4.68 2.973L-5.418 1.926L-5.915 0.696L-6.125 -0.659L-6.019 -2.073L-5.582 -3.468L-4.816 -4.768L-3.744 -5.893L-2.408 -6.772L-0.864 -7.342L0.813 -7.555L2.541 -7.378L4.227 -6.803L5.779 -5.837L7.107 -4.515L8.127 -2.889L8.77 -1.032L8.984 0.967L8.738 3.009L8.024 4.986L6.859 6.791L5.286 8.32L3.371 9.481L1.201 10.197L-1.121 10.413L-3.477 10.097L-5.745 9.244L-7.802 7.88L-9.533 6.057L-10.836 3.852" fill="none" stroke="#16161A" stroke-width="3.4" stroke-linecap="round" stroke-linejoin="round" transform="matrix(0.921 -0.126 0.137 0.999 185.018 164.963)"/><path d="M0 0L-0.173 -0.11L-0.289 -0.292L-0.325 -0.523L-0.267 -0.777L-0.11 -1.021L0.144 -1.224L0.482 -1.354L0.881 -1.387L1.313 -1.3L1.744 -1.084L2.136 -0.735L2.45 -0.264L2.651 0.312L2.709 0.963L2.6 1.652L2.312 2.335L1.843 2.965L1.203 3.495L0.417 3.879L-0.48 4.079L-1.445 4.063L-2.423 3.813L-3.356 3.323L-4.186 2.601L-4.854 1.671L-5.309 0.571L-5.507 -0.648L-5.418 -1.926L-5.027 -3.194L-4.334 -4.378L-3.36 -5.407L-2.139 -6.213L-0.725 -6.738L0.816 -6.934L2.408 -6.772L3.964 -6.24L5.4 -5.346L6.628 -4.119L7.573 -2.607L8.167 -0.879L8.362 0.984L8.127 2.889L7.453 4.735L6.357 6.421L4.877 7.849L3.075 8.932L1.033 9.596L-1.153 9.79L-3.371 9.481L-5.506 8.667L-7.443 7.369L-9.07 5.636L-10.291 3.543L-11.026 1.187L-11.217 -1.321L-10.836 -3.852" fill="none" stroke="#16161A" stroke-width="3.4" stroke-linecap="round" stroke-linejoin="round" transform="matrix(0.68 -0.093 0.137 0.999 217.451 160.51)"/><path d="M-9 0Q-4.5 -5 0 0Q4.5 5 9 0" fill="none" stroke="#16161A" stroke-width="4.5" stroke-linecap="round" stroke-linejoin="round" transform="matrix(0.818 -0.112 0.127 0.926 201.881 188.332)"/></g><path d="M9.008 0C9.008 12.939 4.975 23.428 0 23.428C-4.975 23.428 -9.008 12.939 -9.008 0C-9.008 -12.939 -4.975 -23.428 0 -23.428C4.975 -23.428 9.008 -12.939 9.008 0" fill="#1478C9" fill-opacity="0.644" transform="matrix(1 0.156 -0.153 1.006 239.633 15.682)"/><path d="M5.74 0C5.74 10.697 3.17 19.368 0 19.368C-3.17 19.368 -5.74 10.697 -5.74 0C-5.74 -10.697 -3.17 -19.368 0 -19.368C3.17 -19.368 5.74 -10.697 5.74 0" fill="#1478C9" fill-opacity="0.568" transform="matrix(0.989 0.213 -0.21 0.995 245.579 40.309)"/></svg>