<svg xmlns="http://www.w3.org/2000/svg" width="320" height="320" viewBox="0 0 320 320"><defs><radialGradient id="bg0" gradientUnits="userSpaceOnUse" cx="-34" cy="-40" r="162" fx="-34" fy="-40"><stop offset="0" stop-color="rgba(255,255,255,0.0426)"/><stop offset="0.42" stop-color="rgba(255,255,255,0)"/><stop offset="1" stop-color="rgba(0,0,0,0.272)"/></radialGradient><clipPath id="bc1"><path d="M0 -102.44C55.94 -102.44 98.5 -43.025 98.5 2.868C98.5 71.708 61.733 102.44 0 102.44C-61.733 102.44 -98.5 71.708 -98.5 2.868C-98.5 -43.025 -55.94 -102.44 0 -102.44ZM2.919 -96.979C54.944 -96.979 94.524 -40.535 94.524 3.063C94.524 68.461 60.331 97.657 2.919 97.657C-54.493 97.657 -88.686 68.461 -88.686 3.063C-88.686 -40.535 -49.105 -96.979 2.919 -96.979Z" transform="matrix(1.011 0.012 -0.012 1.018 159.126 155.144)"/></clipPath><clipPath id="bc2"><path d="M49.395 11.98Q49.395 11.98 50.408 14.586Q51.421 17.192 52.173 19.852Q52.925 22.512 53.41 25.201Q53.894 27.89 54.107 30.583Q54.319 33.275 54.257 35.946Q54.195 38.617 53.859 41.241Q53.523 43.866 52.917 46.42Q52.311 48.973 51.44 51.433Q50.569 53.892 49.441 56.234Q48.314 58.577 46.941 60.781Q45.568 62.985 43.961 65.031Q42.355 67.077 40.531 68.947Q38.706 70.816 36.681 72.493Q34.656 74.169 32.448 75.638Q30.24 77.106 27.871 78.354Q25.501 79.602 22.991 80.618Q20.481 81.634 17.853 82.41Q15.225 83.186 12.504 83.715Q9.783 84.244 6.993 84.522Q4.203 84.8 1.369 84.824Q-1.464 84.848 -4.316 84.618Q-7.167 84.388 -10.011 83.906Q-12.855 83.425 -15.664 82.695Q-18.474 81.966 -21.224 80.995Q-23.974 80.024 -26.64 78.821Q-29.305 77.617 -31.861 76.191Q-34.417 74.765 -36.84 73.129Q-39.264 71.492 -41.531 69.661Q-43.799 67.829 -45.89 65.817Q-47.981 63.806 -49.875 61.633Q-51.77 59.461 -53.45 57.146Q-55.13 54.831 -56.58 52.395Q-58.029 49.96 -59.234 47.425Q-60.44 44.891 -61.389 42.281Q-62.339 39.671 -63.023 37.009Q-63.707 34.348 -64.12 31.66Q-64.533 28.972 -64.67 26.282Q-64.807 23.592 -64.667 20.926Q-64.528 18.26 -64.113 15.642Q-63.698 13.024 -63.011 10.479Q-62.325 7.934 -60.303 3.614Q-58.282 -0.707 -56.118 -4.141Q-53.955 -7.574 -51.762 -10.04Q-49.569 -12.505 -47.416 -13.959Q-45.262 -15.414 -43.177 -15.832Q-41.092 -16.25 -39.072 -15.61Q-37.052 -14.97 -35.066 -13.248Q-33.08 -11.526 -31.077 -8.701Q-29.073 -5.875 -26.528 -9.147Q-23.982 -12.418 -21.471 -14.731Q-18.961 -17.045 -16.512 -18.396Q-14.062 -19.747 -11.676 -20.14Q-9.289 -20.532 -6.948 -19.968Q-4.608 -19.405 -2.282 -17.881Q0.043 -16.357 2.391 -13.867Q4.739 -11.378 7.152 -7.927Q9.565 -4.476 12.069 -7.138Q14.572 -9.801 17.036 -11.361Q19.501 -12.922 21.934 -13.401Q24.368 -13.879 26.791 -13.298Q29.215 -12.717 31.656 -11.096Q34.097 -9.476 36.582 -6.841Q39.067 -4.206 41.615 -0.602Q44.164 3.003 46.779 7.491Q49.395 11.98 49.395 11.98Z" transform="matrix(1.011 0.012 -0.012 1.018 159.126 155.144)"/></clipPath><radialGradient id="bg1" gradientUnits="userSpaceOnUse" cx="-34.98" cy="-5.791" r="103.507" fx="-34.98" fy="-5.791"><stop offset="0" stop-color="rgba(0,0,0,0.1278)"/><stop offset="0.6" stop-color="rgba(0,0,0,0)"/></radialGradient><radialGradient id="bg2" gradientUnits="userSpaceOnUse" cx="-34" cy="-40" r="162" fx="-34" fy="-40"><stop offset="0" stop-color="rgba(255,255,255,0.1)"/><stop offset="0.42" stop-color="rgba(255,255,255,0)"/><stop offset="1" stop-color="rgba(0,0,0,0.2)"/></radialGradient></defs><path d="M70.128 126C70.128 132.075 38.535 137 -0.437 137C-39.409 137 -71.002 132.075 -71.002 126C-71.002 119.925 -39.409 115 -0.437 115C38.535 115 70.128 119.925 70.128 126" fill="rgba(22,22,26,0.13)" fill-opacity="0.8" transform="matrix(1 0 0 1 160 160)"/><path d="M97 0C97 55.714 53.572 100.88 0 100.88C-53.572 100.88 -97 55.714 -97 0C-97 -55.714 -53.572 -100.88 0 -100.88C53.572 -100.88 97 -55.714 97 0" fill="#16161A" fill-opacity="0.028" transform="matrix(1 0 0 1 146.907 155.393)"/><path d="M97 0C97 55.714 53.572 100.88 0 100.88C-53.572 100.88 -97 55.714 -97 0C-97 -55.714 -53.572 -100.88 0 -100.88C53.572 -100.88 97 -55.714 97 0" fill="#16161A" fill-opacity="0.043" transform="matrix(1 0 0 1 148.316 155.334)"/><path d="M97 0C97 55.714 53.572 100.88 0 100.88C-53.572 100.88 -97 55.714 -97 0C-97 -55.714 -53.572 -100.88 0 -100.88C53.572 -100.88 97 -55.714 97 0" fill="#16161A" fill-opacity="0.142" transform="matrix(1 0 0 1 159.126 155.144)"/><path d="M2.919 -98.461C55.736 -98.461 95.919 -41.157 95.919 3.105C95.919 69.499 61.206 99.139 2.919 99.139C-55.367 99.139 -90.081 69.499 -90.081 3.105C-90.081 -41.157 -49.897 -98.461 2.919 -98.461Z" fill="#16161A" transform="matrix(1.011 0.012 -0.012 1.018 159.126 155.144)"/><path d="M0 -104C56.792 -104 100 -43.68 100 2.912C100 72.8 62.674 104 0 104C-62.674 104 -100 72.8 -100 2.912C-100 -43.68 -56.792 -104 0 -104Z" fill="#16161A" transform="matrix(1.011 0.012 -0.012 1.018 159.126 155.144)"/><path d="M0 -104C56.792 -104 100 -43.68 100 2.912C100 72.8 62.674 104 0 104C-62.674 104 -100 72.8 -100 2.912C-100 -43.68 -56.792 -104 0 -104ZM2.919 -98.461C55.736 -98.461 95.919 -41.157 95.919 3.105C95.919 69.499 61.206 99.139 2.919 99.139C-55.367 99.139 -90.081 69.499 -90.081 3.105C-90.081 -41.157 -49.897 -98.461 2.919 -98.461Z" fill="url(#bg0)" transform="matrix(1.011 0.012 -0.012 1.018 159.126 155.144)"/><g clip-path="url(#bc1)"><path d="M49.395 11.98Q49.395 11.98 50.408 14.586Q51.421 17.192 52.173 19.852Q52.925 22.512 53.41 25.201Q53.894 27.89 54.107 30.583Q54.319 33.275 54.257 35.946Q54.195 38.617 53.859 41.241Q53.523 43.866 52.917 46.42Q52.311 48.973 51.44 51.433Q50.569 53.892 49.441 56.234Q48.314 58.577 46.941 60.781Q45.568 62.985 43.961 65.031Q42.355 67.077 40.531 68.947Q38.706 70.816 36.681 72.493Q34.656 74.169 32.448 75.638Q30.24 77.106 27.871 78.354Q25.501 79.602 22.991 80.618Q20.481 81.634 17.853 82.41Q15.225 83.186 12.504 83.715Q9.783 84.244 6.993 84.522Q4.203 84.8 1.369 84.824Q-1.464 84.848 -4.316 84.618Q-7.167 84.388 -10.011 83.906Q-12.855 83.425 -15.664 82.695Q-18.474 81.966 -21.224 80.995Q-23.974 80.024 -26.64 78.821Q-29.305 77.617 -31.861 76.191Q-34.417 74.765 -36.84 73.129Q-39.264 71.492 -41.531 69.661Q-43.799 67.829 -45.89 65.817Q-47.981 63.806 -49.875 61.633Q-51.77 59.461 -53.45 57.146Q-55.13 54.831 -56.58 52.395Q-58.029 49.96 -59.234 47.425Q-60.44 44.891 -61.389 42.281Q-62.339 39.671 -63.023 37.009Q-63.707 34.348 -64.12 31.66Q-64.533 28.972 -64.67 26.282Q-64.807 23.592 -64.667 20.926Q-64.528 18.26 -64.113 15.642Q-63.698 13.024 -63.011 10.479Q-62.325 7.934 -60.303 3.614Q-58.282 -0.707 -56.118 -4.141Q-53.955 -7.574 -51.762 -10.04Q-49.569 -12.505 -47.416 -13.959Q-45.262 -15.414 -43.177 -15.832Q-41.092 -16.25 -39.072 -15.61Q-37.052 -14.97 -35.066 -13.248Q-33.08 -11.526 -31.077 -8.701Q-29.073 -5.875 -26.528 -9.147Q-23.982 -12.418 -21.471 -14.731Q-18.961 -17.045 -16.512 -18.396Q-14.062 -19.747 -11.676 -20.14Q-9.289 -20.532 -6.948 -19.968Q-4.608 -19.405 -2.282 -17.881Q0.043 -16.357 2.391 -13.867Q4.739 -11.378 7.152 -7.927Q9.565 -4.476 12.069 -7.138Q14.572 -9.801 17.036 -11.361Q19.501 -12.922 21.934 -13.401Q24.368 -13.879 26.791 -13.298Q29.215 -12.717 31.656 -11.096Q34.097 -9.476 36.582 -6.841Q39.067 -4.206 41.615 -0.602Q44.164 3.003 46.779 7.491Q49.395 11.98 49.395 11.98Z" fill="#FFFFFF" transform="matrix(1.011 0.012 -0.012 1.018 159.126 155.144)"/><g clip-path="url(#bc2)"><path d="M89.959 28.898C89.959 81.471 47.34 124.089 -5.233 124.089C-57.805 124.089 -100.424 81.471 -100.424 28.898C-100.424 -23.675 -57.805 -66.293 -5.233 -66.293C47.34 -66.293 89.959 -23.675 89.959 28.898" fill="url(#bg1)" transform="matrix(1.011 0.012 -0.012 1.018 159.126 155.144)"/></g><g clip-path="url(#bc2)"><path d="M89.959 28.898C89.959 81.471 47.34 124.089 -5.233 124.089C-57.805 124.089 -100.424 81.471 -100.424 28.898C-100.424 -23.675 -57.805 -66.293 -5.233 -66.293C47.34 -66.293 89.959 -23.675 89.959 28.898" fill="url(#bg2)" transform="matrix(1.011 0.012 -0.012 1.018 159.126 155.144)"/></g><g clip-path="url(#bc2)"><path d="M11.5 0C11.5 3.866 6.351 7 0 7C-6.351 7 -11.5 3.866 -11.5 0C-11.5 -3.866 -6.351 -7 0 -7C6.351 -7 11.5 -3.866 11.5 0" fill="rgba(255,138,168,0.42)" fill-opacity="0.7" transform="matrix(0.819 0.01 -0.01 0.831 122.457 209.15)"/><path d="M11.5 0C11.5 3.866 6.351 7 0 7C-6.351 7 -11.5 3.866 -11.5 0C-11.5 -3.866 -6.351 -7 0 -7C6.351 -7 11.5 -3.866 11.5 0" fill="rgba(255,138,168,0.42)" fill-opacity="0.7" transform="matrix(0.994 0.012 -0.01 0.831 183.687 209.871)"/></g><g clip-path="url(#bc2)"><path d="M6.72 0C6.72 4.595 3.711 8.32 0 8.32C-3.711 8.32 -6.72 4.595 -6.72 0C-6.72 -4.595 -3.711 -8.32 0 -8.32C3.711 -8.32 6.72 -4.595 6.72 0" fill="#16161A" transform="matrix(0.906 0.011 -0.01 0.875 131.839 202.737)"/><path d="M-0.269 -3.162C-0.269 -1.967 -1.171 -0.998 -2.285 -0.998C-3.398 -0.998 -4.301 -1.967 -4.301 -3.162C-4.301 -4.356 -3.398 -5.325 -2.285 -5.325C-1.171 -5.325 -0.269 -4.356 -0.269 -3.162" fill="#FFFFFF" transform="matrix(0.906 0.011 -0.01 0.875 131.839 202.737)"/><path d="M3.091 2.496C3.091 3.139 2.61 3.661 2.016 3.661C1.422 3.661 0.941 3.139 0.941 2.496C0.941 1.853 1.422 1.331 2.016 1.331C2.61 1.331 3.091 1.853 3.091 2.496" fill="#FFFFFF" transform="matrix(0.906 0.011 -0.01 0.875 131.839 202.737)"/><path d="M10.56 0C10.56 7.246 5.832 13.12 0 13.12C-5.832 13.12 -10.56 7.246 -10.56 0C-10.56 -7.246 -5.832 -13.12 0 -13.12C5.832 -13.12 10.56 -7.246 10.56 0" fill="#16161A" transform="matrix(1.011 0.012 -0.01 0.875 170.868 203.196)"/><path d="M-0.422 -4.986C-0.422 -3.102 -1.841 -1.574 -3.59 -1.574C-5.34 -1.574 -6.758 -3.102 -6.758 -4.986C-6.758 -6.87 -5.34 -8.397 -3.59 -8.397C-1.841 -8.397 -0.422 -6.87 -0.422 -4.986" fill="#FFFFFF" transform="matrix(1.011 0.012 -0.01 0.875 170.868 203.196)"/><path d="M4.858 3.936C4.858 4.95 4.101 5.773 3.168 5.773C2.235 5.773 1.478 4.95 1.478 3.936C1.478 2.922 2.235 2.099 3.168 2.099C4.101 2.099 4.858 2.922 4.858 3.936" fill="#FFFFFF" transform="matrix(1.011 0.012 -0.01 0.875 170.868 203.196)"/><path d="M-11 0L11 0" fill="none" stroke="#16161A" stroke-width="4.2" stroke-linecap="round" stroke-linejoin="round" transform="matrix(0.885 0.184 -0.19 0.855 132.09 181.364)"/><path d="M-12 0L12 0" fill="none" stroke="#16161A" stroke-width="4.2" stroke-linecap="round" stroke-linejoin="round" transform="matrix(1.005 -0.093 0.111 0.87 171.24 171.646)"/><path d="M-16.32 0Q-8.16 -6.936 0 0Q8.16 6.936 16.32 0" fill="none" stroke="#16161A" stroke-width="4.6" stroke-linecap="round" stroke-linejoin="round" transform="matrix(0.987 0.012 -0.008 0.71 154.012 223.086)"/></g></g><path d="M12.099 0C12.099 12.939 6.682 23.428 0 23.428C-6.682 23.428 -12.099 12.939 -12.099 0C-12.099 -12.939 -6.682 -23.428 0 -23.428C6.682 -23.428 12.099 -12.939 12.099 0" fill="#1478C9" fill-opacity="0.644" transform="matrix(0.957 0.33 -0.328 0.963 190.012 23.194)"/><path d="M9.344 0C9.344 10.697 5.161 19.368 0 19.368C-5.161 19.368 -9.344 10.697 -9.344 0C-9.344 -10.697 -5.161 -19.368 0 -19.368C5.161 -19.368 9.344 -10.697 9.344 0" fill="#1478C9" fill-opacity="0.644" transform="matrix(0.587 0.829 -0.824 0.59 228.919 48.86)"/><path d="M6.763 0C6.763 8.105 3.735 14.676 0 14.676C-3.735 14.676 -6.763 8.105 -6.763 0C-6.763 -8.105 -3.735 -14.676 0 -14.676C3.735 -14.676 6.763 -8.105 6.763 0" fill="#1478C9" fill-opacity="0.644" transform="matrix(0.189 1 -0.994 0.19 242.454 86.102)"/><path d="M0 -10.086Q6.983 2.328 0 7.758Q-6.983 2.328 0 -10.086" fill="#1478C9" transform="matrix(-0.867 0.498 -0.498 -0.867 203.735 124.925)"/><path d="M0 -9.348Q6.472 2.157 0 7.191Q-6.472 2.157 0 -9.348" fill="#1478C9" transform="matrix(-0.346 -0.938 0.938 -0.346 191.883 110.725)"/><path d="M0 -7.24Q5.013 1.671 0 5.569Q-5.013 1.671 0 -7.24" fill="#1478C9" transform="matrix(0.744 -0.668 0.668 0.744 201.129 134.524)"/></svg>