<svg xmlns="http://www.w3.org/2000/svg" width="320" height="320" viewBox="0 0 320 320"><defs><clipPath id="bc1"><path d="M62.02 3.941C71.993 30.718 62.802 60.717 39.412 77.734C16.023 94.75 -16.023 94.75 -39.412 77.734C-62.802 60.717 -71.993 30.718 -62.02 3.941Q-41.346 -41.061 -20.673 -16.567Q0 -47.525 20.673 -16.567Q41.346 -41.061 62.02 3.941Z" transform="matrix(1 0 0 1 160 160)"/></clipPath></defs><path d="M73.467 126C73.467 132.075 40.575 137 0 137C-40.575 137 -73.467 132.075 -73.467 126C-73.467 119.925 -40.575 115 0 115C40.575 115 73.467 119.925 73.467 126" fill="rgba(22,22,26,0.13)" fill-opacity="0.857" transform="matrix(1 0 0 1 160 160)"/><path d="M0 -104C56.792 -104 100 -43.68 100 2.912C100 72.8 62.674 104 0 104C-62.674 104 -100 72.8 -100 2.912C-100 -43.68 -56.792 -104 0 -104Z" fill="#16161A" transform="matrix(1 0 0 1 160 160)"/><path d="M62.02 3.941C71.993 30.718 62.802 60.717 39.412 77.734C16.023 94.75 -16.023 94.75 -39.412 77.734C-62.802 60.717 -71.993 30.718 -62.02 3.941Q-41.346 -41.061 -20.673 -16.567Q0 -47.525 20.673 -16.567Q41.346 -41.061 62.02 3.941Z" fill="#FFFFFF" transform="matrix(1 0 0 1 160 160)"/><path d="M11.5 0C11.5 3.866 6.351 7 0 7C-6.351 7 -11.5 3.866 -11.5 0C-11.5 -3.866 -6.351 -7 0 -7C6.351 -7 11.5 -3.866 11.5 0" fill="rgba(255,138,168,0.42)" fill-opacity="0.7" transform="matrix(0.918 0 0 0.899 125.83 202)"/><path d="M11.5 0C11.5 3.866 6.351 7 0 7C-6.351 7 -11.5 3.866 -11.5 0C-11.5 -3.866 -6.351 -7 0 -7C6.351 -7 11.5 -3.866 11.5 0" fill="rgba(255,138,168,0.42)" fill-opacity="0.7" transform="matrix(0.918 0 0 0.899 194.17 202)"/><g clip-path="url(#bc1)"><path d="M0 -16L4.138 -5.695L15.217 -4.944L6.695 2.175L9.405 12.944L0 7.04L-9.405 12.944L-6.695 2.175L-15.217 -4.944L-4.138 -5.695Z" fill="#16161A" transform="matrix(0.971 0 0 0.931 138.583 195)"/><path d="M0 -16L4.138 -5.695L15.217 -4.944L6.695 2.175L9.405 12.944L0 7.04L-9.405 12.944L-6.695 2.175L-15.217 -4.944L-4.138 -5.695Z" fill="#16161A" transform="matrix(0.971 0 0 0.931 181.417 195)"/><path d="M-21.08 0L21.08 0C21.08 6.835 11.642 12.376 0 12.376C-11.642 12.376 -21.08 6.835 -21.08 0Z" fill="#16161A" transform="matrix(1 0 0 0.805 160 217)"/></g><path d="M-10.215 -10.816C-8.289 -8.119 -9.498 -3.956 -12.914 -1.517C-16.33 0.922 -20.66 0.713 -22.585 -1.984C-24.511 -4.681 -23.302 -8.844 -19.886 -11.283C-16.47 -13.722 -12.14 -13.513 -10.215 -10.816" fill="#2A2A31" transform="matrix(0.825 0 0 1 265.983 157.6)"/><path d="M17.2 0C17.2 11.267 9.499 20.4 0 20.4C-9.499 20.4 -17.2 11.267 -17.2 0C-17.2 -11.267 -9.499 -20.4 0 -20.4C9.499 -20.4 17.2 -11.267 17.2 0" fill="#2A2A31" transform="matrix(0.825 0 0 1 265.983 157.6)"/><path d="M10.407 0C10.407 11.598 5.748 21 0 21C-5.748 21 -10.407 11.598 -10.407 0C-10.407 -11.598 -5.748 -21 0 -21C5.748 -21 10.407 -11.598 10.407 0" fill="#1478C9" fill-opacity="0.644" transform="matrix(0.95 0.313 -0.313 0.95 214.672 32)"/><path d="M7.013 0C7.013 8.759 3.873 15.859 0 15.859C-3.873 15.859 -7.013 8.759 -7.013 0C-7.013 -8.759 -3.873 -15.859 0 -15.859C3.873 -15.859 7.013 -8.759 7.013 0" fill="#1478C9" fill-opacity="0.644" transform="matrix(0.602 0.798 -0.798 0.602 245.33 55.971)"/><path d="M4.73 0C4.73 6.334 2.612 11.469 0 11.469C-2.612 11.469 -4.73 6.334 -4.73 0C-4.73 -6.334 -2.612 -11.469 0 -11.469C2.612 -11.469 4.73 -6.334 4.73 0" fill="#1478C9" fill-opacity="0.644" transform="matrix(0.258 0.966 -0.966 0.258 254.188 92.067)"/><path d="M-13 -27L13 -27L13 -27C18.523 -27 23 -22.523 23 -17L23 17L23 17C23 22.523 18.523 27 13 27L-13 27L-13 27C-18.523 27 -23 22.523 -23 17L-23 -17L-23 -17C-23 -22.523 -18.523 -27 -13 -27Z" fill="#FFFFFF" transform="matrix(1.191 0 0 1.45 254.717 144)"/><path d="M-13 -27L13 -27L13 -27C18.523 -27 23 -22.523 23 -17L23 17L23 17C23 22.523 18.523 27 13 27L-13 27L-13 27C-18.523 27 -23 22.523 -23 17L-23 -17L-23 -17C-23 -22.523 -18.523 -27 -13 -27Z" fill="none" stroke="#16161A" stroke-width="4" stroke-linecap="round" stroke-linejoin="round" transform="matrix(1.191 0 0 1.45 254.717 144)"/><path d="M0.16 -0.433C0.04 -0.541 -0.111 -0.517 -0.214 -0.372C-0.317 -0.227 -0.349 0.005 -0.292 0.203C-0.236 0.401 -0.104 0.52 0.033 0.497C0.171 0.475 0.284 0.316 0.313 0.104C0.342 -0.108 0.28 -0.325 0.16 -0.433" fill="none" stroke="#16161A" stroke-width="0.145" stroke-linecap="round" stroke-linejoin="round" transform="matrix(35.728 0 0 43.5 254.841 144.029)"/><path d="M0.1 0.26L0.34 0.54" fill="none" stroke="#16161A" stroke-width="0.145" stroke-linecap="round" stroke-linejoin="round" transform="matrix(35.728 0 0 43.5 254.841 144.029)"/></svg>