<svg xmlns="http://www.w3.org/2000/svg" width="320" height="320" viewBox="0 0 320 320"><defs><radialGradient id="bg0" gradientUnits="userSpaceOnUse" cx="-34" cy="-40" r="162" fx="-34" fy="-40"><stop offset="0" stop-color="rgba(255,255,255,0.0426)"/><stop offset="0.42" stop-color="rgba(255,255,255,0)"/><stop offset="1" stop-color="rgba(0,0,0,0.272)"/></radialGradient><clipPath id="bc1"><path d="M0 -102.44C55.94 -102.44 98.5 -43.025 98.5 2.868C98.5 71.708 61.733 102.44 0 102.44C-61.733 102.44 -98.5 71.708 -98.5 2.868C-98.5 -43.025 -55.94 -102.44 0 -102.44ZM-6.798 -96.152C45.227 -96.152 84.807 -39.708 84.807 3.891C84.807 69.288 50.614 98.484 -6.798 98.484C-64.21 98.484 -98.403 69.288 -98.403 3.891C-98.403 -39.708 -58.822 -96.152 -6.798 -96.152Z" transform="matrix(0.69 0.014 -0.014 0.69 103.007 160.301)"/></clipPath><clipPath id="bc2"><path d="M66.6 2.233Q66.6 2.233 67.008 4.866Q67.416 7.499 67.573 10.208Q67.73 12.918 67.634 15.679Q67.537 18.44 67.189 21.227Q66.84 24.014 66.243 26.8Q65.645 29.586 64.804 32.346Q63.963 35.106 62.887 37.814Q61.811 40.522 60.51 43.153Q59.209 45.784 57.696 48.313Q56.182 50.843 54.471 53.248Q52.76 55.653 50.868 57.912Q48.976 60.171 46.92 62.264Q44.865 64.356 42.666 66.263Q40.467 68.17 38.145 69.874Q35.823 71.578 33.4 73.066Q30.977 74.553 28.476 75.809Q25.975 77.066 23.418 78.081Q20.862 79.096 18.274 79.86Q15.686 80.625 13.089 81.133Q10.493 81.641 7.913 81.887Q5.332 82.133 2.791 82.116Q0.25 82.099 -2.23 81.818Q-4.709 81.537 -7.103 80.995Q-9.498 80.454 -11.786 79.655Q-14.075 78.857 -16.236 77.809Q-18.398 76.761 -20.413 75.472Q-22.428 74.184 -24.278 72.666Q-26.128 71.148 -27.797 69.414Q-29.465 67.68 -30.937 65.746Q-32.409 63.811 -33.67 61.693Q-34.932 59.576 -35.972 57.293Q-37.011 55.011 -37.82 52.585Q-38.628 50.16 -39.197 47.612Q-39.767 45.065 -40.092 42.42Q-40.417 39.775 -40.495 37.056Q-40.573 34.337 -40.404 31.57Q-40.234 28.803 -39.818 26.013Q-39.402 23.223 -38.743 20.437Q-38.085 17.651 -37.19 14.894Q-36.295 12.137 -35.172 9.436Q-34.049 6.735 -31.311 2.074Q-28.572 -2.587 -26.028 -6.314Q-23.485 -10.041 -21.058 -12.769Q-18.631 -15.498 -16.246 -17.201Q-13.862 -18.904 -11.461 -19.568Q-9.06 -20.231 -6.601 -19.839Q-4.143 -19.447 -1.615 -17.975Q0.913 -16.503 3.49 -13.923Q6.068 -11.343 8.156 -14.811Q10.244 -18.279 12.256 -20.77Q14.267 -23.26 16.282 -24.783Q18.297 -26.307 20.376 -26.876Q22.456 -27.445 24.635 -27.066Q26.815 -26.688 29.101 -25.357Q31.388 -24.026 33.754 -21.731Q36.12 -19.437 38.499 -16.168Q40.878 -12.9 42.36 -15.661Q43.843 -18.423 45.324 -20.074Q46.805 -21.725 48.359 -22.297Q49.914 -22.869 51.574 -22.387Q53.235 -21.905 54.99 -20.387Q56.745 -18.869 58.532 -16.329Q60.319 -13.789 62.021 -10.252Q63.722 -6.715 65.161 -2.241Q66.6 2.233 66.6 2.233Z" transform="matrix(0.69 0.014 -0.014 0.69 103.007 160.301)"/></clipPath><radialGradient id="bg1" gradientUnits="userSpaceOnUse" cx="-13.484" cy="-11.778" r="107.245" fx="-13.484" fy="-11.778"><stop offset="0" stop-color="rgba(0,0,0,0.1423)"/><stop offset="0.6" stop-color="rgba(0,0,0,0)"/></radialGradient><radialGradient id="bg2" gradientUnits="userSpaceOnUse" cx="-34" cy="-40" r="162" fx="-34" fy="-40"><stop offset="0" stop-color="rgba(255,255,255,0.1)"/><stop offset="0.42" stop-color="rgba(255,255,255,0)"/><stop offset="1" stop-color="rgba(0,0,0,0.2)"/></radialGradient></defs><path d="M-10.84 126C-10.84 132.075 -43.438 137 -83.649 137C-123.86 137 -156.457 132.075 -156.457 126C-156.457 119.925 -123.86 115 -83.649 115C-43.438 115 -10.84 119.925 -10.84 126" fill="rgba(22,22,26,0.13)" fill-opacity="0.862" transform="matrix(0.681 0 0 0.681 160 160)"/><path d="M3.062 0C3.062 6.271 1.691 11.355 0 11.355C-1.691 11.355 -3.062 6.271 -3.062 0C-3.062 -6.271 -1.691 -11.355 0 -11.355C1.691 -11.355 3.062 -6.271 3.062 0" fill="#1478C9" fill-opacity="0.468" transform="matrix(0.69 0.009 -0.009 0.69 170.693 114.656)"/><path d="M-10.215 -10.816C-8.289 -8.119 -9.498 -3.956 -12.914 -1.517C-16.33 0.922 -20.66 0.713 -22.585 -1.984C-24.511 -4.681 -23.302 -8.844 -19.886 -11.283C-16.47 -13.722 -12.14 -13.513 -10.215 -10.816" fill="#2A2A31" fill-opacity="0.963" transform="matrix(0.402 0.008 -0.014 0.69 166.571 182.19)"/><path d="M17.2 0C17.2 11.267 9.499 20.4 0 20.4C-9.499 20.4 -17.2 11.267 -17.2 0C-17.2 -11.267 -9.499 -20.4 0 -20.4C9.499 -20.4 17.2 -11.267 17.2 0" fill="#2A2A31" fill-opacity="0.963" transform="matrix(0.402 0.008 -0.014 0.69 166.571 182.19)"/><path d="M-6.798 -97.634C46.019 -97.634 86.202 -40.33 86.202 3.932C86.202 70.326 51.489 99.966 -6.798 99.966C-65.084 99.966 -99.798 70.326 -99.798 3.932C-99.798 -40.33 -59.614 -97.634 -6.798 -97.634Z" fill="#16161A" transform="matrix(0.69 0.014 -0.014 0.69 103.007 160.301)"/><path d="M0 -104C56.792 -104 100 -43.68 100 2.912C100 72.8 62.674 104 0 104C-62.674 104 -100 72.8 -100 2.912C-100 -43.68 -56.792 -104 0 -104Z" fill="#16161A" transform="matrix(0.69 0.014 -0.014 0.69 103.007 160.301)"/><path d="M0 -104C56.792 -104 100 -43.68 100 2.912C100 72.8 62.674 104 0 104C-62.674 104 -100 72.8 -100 2.912C-100 -43.68 -56.792 -104 0 -104ZM-6.798 -97.634C46.019 -97.634 86.202 -40.33 86.202 3.932C86.202 70.326 51.489 99.966 -6.798 99.966C-65.084 99.966 -99.798 70.326 -99.798 3.932C-99.798 -40.33 -59.614 -97.634 -6.798 -97.634Z" fill="url(#bg0)" transform="matrix(0.69 0.014 -0.014 0.69 103.007 160.301)"/><g clip-path="url(#bc1)"><path d="M66.6 2.233Q66.6 2.233 67.008 4.866Q67.416 7.499 67.573 10.208Q67.73 12.918 67.634 15.679Q67.537 18.44 67.189 21.227Q66.84 24.014 66.243 26.8Q65.645 29.586 64.804 32.346Q63.963 35.106 62.887 37.814Q61.811 40.522 60.51 43.153Q59.209 45.784 57.696 48.313Q56.182 50.843 54.471 53.248Q52.76 55.653 50.868 57.912Q48.976 60.171 46.92 62.264Q44.865 64.356 42.666 66.263Q40.467 68.17 38.145 69.874Q35.823 71.578 33.4 73.066Q30.977 74.553 28.476 75.809Q25.975 77.066 23.418 78.081Q20.862 79.096 18.274 79.86Q15.686 80.625 13.089 81.133Q10.493 81.641 7.913 81.887Q5.332 82.133 2.791 82.116Q0.25 82.099 -2.23 81.818Q-4.709 81.537 -7.103 80.995Q-9.498 80.454 -11.786 79.655Q-14.075 78.857 -16.236 77.809Q-18.398 76.761 -20.413 75.472Q-22.428 74.184 -24.278 72.666Q-26.128 71.148 -27.797 69.414Q-29.465 67.68 -30.937 65.746Q-32.409 63.811 -33.67 61.693Q-34.932 59.576 -35.972 57.293Q-37.011 55.011 -37.82 52.585Q-38.628 50.16 -39.197 47.612Q-39.767 45.065 -40.092 42.42Q-40.417 39.775 -40.495 37.056Q-40.573 34.337 -40.404 31.57Q-40.234 28.803 -39.818 26.013Q-39.402 23.223 -38.743 20.437Q-38.085 17.651 -37.19 14.894Q-36.295 12.137 -35.172 9.436Q-34.049 6.735 -31.311 2.074Q-28.572 -2.587 -26.028 -6.314Q-23.485 -10.041 -21.058 -12.769Q-18.631 -15.498 -16.246 -17.201Q-13.862 -18.904 -11.461 -19.568Q-9.06 -20.231 -6.601 -19.839Q-4.143 -19.447 -1.615 -17.975Q0.913 -16.503 3.49 -13.923Q6.068 -11.343 8.156 -14.811Q10.244 -18.279 12.256 -20.77Q14.267 -23.26 16.282 -24.783Q18.297 -26.307 20.376 -26.876Q22.456 -27.445 24.635 -27.066Q26.815 -26.688 29.101 -25.357Q31.388 -24.026 33.754 -21.731Q36.12 -19.437 38.499 -16.168Q40.878 -12.9 42.36 -15.661Q43.843 -18.423 45.324 -20.074Q46.805 -21.725 48.359 -22.297Q49.914 -22.869 51.574 -22.387Q53.235 -21.905 54.99 -20.387Q56.745 -18.869 58.532 -16.329Q60.319 -13.789 62.021 -10.252Q63.722 -6.715 65.161 -2.241Q66.6 2.233 66.6 2.233Z" fill="#FFFFFF" transform="matrix(0.69 0.014 -0.014 0.69 103.007 160.301)"/><g clip-path="url(#bc2)"><path d="M106.33 24.163C106.33 75.389 64.804 116.915 13.578 116.915C-37.647 116.915 -79.174 75.389 -79.174 24.163C-79.174 -27.062 -37.647 -68.589 13.578 -68.589C64.804 -68.589 106.33 -27.062 106.33 24.163" fill="url(#bg1)" transform="matrix(0.69 0.014 -0.014 0.69 103.007 160.301)"/></g><g clip-path="url(#bc2)"><path d="M106.33 24.163C106.33 75.389 64.804 116.915 13.578 116.915C-37.647 116.915 -79.174 75.389 -79.174 24.163C-79.174 -27.062 -37.647 -68.589 13.578 -68.589C64.804 -68.589 106.33 -27.062 106.33 24.163" fill="url(#bg2)" transform="matrix(0.69 0.014 -0.014 0.69 103.007 160.301)"/></g><g clip-path="url(#bc2)"><path d="M11.5 0C11.5 3.866 6.351 7 0 7C-6.351 7 -11.5 3.866 -11.5 0C-11.5 -3.866 -6.351 -7 0 -7C6.351 -7 11.5 -3.866 11.5 0" fill="rgba(255,138,168,0.42)" fill-opacity="0.7" transform="matrix(0.688 0.014 -0.012 0.594 93.326 193.366)"/><path d="M11.5 0C11.5 3.866 6.351 7 0 7C-6.351 7 -11.5 3.866 -11.5 0C-11.5 -3.866 -6.351 -7 0 -7C6.351 -7 11.5 -3.866 11.5 0" fill="rgba(255,138,168,0.42)" fill-opacity="0.7" transform="matrix(0.427 0.009 -0.012 0.594 133.005 194.159)"/></g><g clip-path="url(#bc2)"><path d="M-15.968 -1.005C-15.438 -9.434 -8.446 -16 0 -16C8.446 -16 15.438 -9.434 15.968 -1.005" fill="none" stroke="#16161A" stroke-width="12" stroke-linecap="round" stroke-linejoin="round" transform="matrix(0.668 0.013 -0.012 0.62 106.298 189.856)"/><path d="M-15.968 -1.005C-15.438 -9.434 -8.446 -16 0 -16C8.446 -16 15.438 -9.434 15.968 -1.005" fill="none" stroke="#16161A" stroke-width="12" stroke-linecap="round" stroke-linejoin="round" transform="matrix(0.511 0.01 -0.012 0.62 130.662 190.343)"/><path d="M-20.4 -3.57Q-10.2 9.69 0 -1.53Q10.2 9.69 20.4 -3.57" fill="none" stroke="#16161A" stroke-width="4.8" stroke-linecap="round" stroke-linejoin="round" transform="matrix(0.607 0.012 -0.01 0.52 111.805 203.542)"/></g></g><path d="M7.338 0C7.338 10.22 4.053 18.505 0 18.505C-4.053 18.505 -7.338 10.22 -7.338 0C-7.338 -10.22 -4.053 -18.505 0 -18.505C4.053 -18.505 7.338 -10.22 7.338 0" fill="#1478C9" fill-opacity="0.644" transform="matrix(0.656 0.215 -0.215 0.656 170.41 70.436)"/><path d="M4.536 0C4.536 8.077 2.505 14.624 0 14.624C-2.505 14.624 -4.536 8.077 -4.536 0C-4.536 -8.077 -2.505 -14.624 0 -14.624C2.505 -14.624 4.536 -8.077 4.536 0" fill="#1478C9" fill-opacity="0.603" transform="matrix(0.608 0.328 -0.328 0.608 173.439 88.435)"/><path d="M-73.16 -59L73.16 -59" fill="none" stroke="#5C5C6E" stroke-width="1.6" stroke-linecap="round" stroke-linejoin="round" stroke-opacity="0.28" transform="matrix(1 0 0 1 224 162)"/><path d="M-73.16 -14.16L73.16 -14.16" fill="none" stroke="#5C5C6E" stroke-width="1.6" stroke-linecap="round" stroke-linejoin="round" stroke-opacity="0.15" transform="matrix(1 0 0 1 224 162)"/><path d="M-73.16 59L73.16 59" fill="none" stroke="#5C5C6E" stroke-width="1.6" stroke-linecap="round" stroke-linejoin="round" stroke-opacity="0.28" transform="matrix(1 0 0 1 224 162)"/><path d="M0.22 -0.46L0.201 -0.465L0.181 -0.47L0.162 -0.473L0.142 -0.475L0.122 -0.476L0.102 -0.474L0.082 -0.471L0.063 -0.464L0.045 -0.455L0.029 -0.443L0.016 -0.429L0.004 -0.412L-0.004 -0.394L-0.011 -0.375L-0.015 -0.356L-0.018 -0.336L-0.019 -0.316L-0.02 -0.296L-0.02 -0.276L-0.02 -0.256L-0.02 -0.236L-0.02 -0.216L-0.02 -0.196L-0.02 -0.176L-0.02 -0.156L-0.02 -0.136L-0.02 -0.116L-0.02 -0.096L-0.02 -0.076L-0.02 -0.056L-0.02 -0.036L-0.02 -0.016L-0.02 0.004L-0.02 0.024L-0.02 0.044L-0.02 0.064L-0.02 0.084L-0.02 0.104L-0.02 0.124L-0.02 0.144L-0.02 0.164L-0.02 0.184L-0.02 0.204L-0.02 0.224L-0.02 0.244L-0.02 0.264L-0.02 0.284L-0.02 0.304L-0.02 0.324L-0.02 0.344L-0.02 0.364L-0.02 0.384L-0.02 0.404L-0.02 0.424L-0.02 0.444L-0.02 0.464L-0.02 0.484L-0.02 0.5" fill="none" stroke="rgba(22,22,26,0.13)" stroke-width="0.145" stroke-linecap="round" stroke-linejoin="round" transform="matrix(118 0 0 118 224 162)"/><path d="M-0.24 -0.12L-0.22 -0.12L-0.2 -0.12L-0.18 -0.12L-0.16 -0.12L-0.14 -0.12L-0.12 -0.12L-0.1 -0.12L-0.08 -0.12L-0.06 -0.12L-0.04 -0.12L-0.02 -0.12L0 -0.12L0.02 -0.12L0.04 -0.12L0.06 -0.12L0.08 -0.12L0.1 -0.12L0.12 -0.12L0.14 -0.12L0.16 -0.12L0.18 -0.12L0.2 -0.12L0.22 -0.12L0.24 -0.12" fill="none" stroke="rgba(22,22,26,0.13)" stroke-width="0.145" stroke-linecap="round" stroke-linejoin="round" transform="matrix(118 0 0 118 224 162)"/><path d="M0.22 -0.46L0.201 -0.465L0.181 -0.47L0.162 -0.473L0.142 -0.475L0.122 -0.476L0.102 -0.474L0.082 -0.471L0.063 -0.464L0.045 -0.455L0.029 -0.443L0.016 -0.429L0.004 -0.412L-0.004 -0.394L-0.011 -0.375L-0.015 -0.356L-0.018 -0.336L-0.019 -0.316L-0.02 -0.296L-0.02 -0.276L-0.02 -0.256L-0.02 -0.236L-0.02 -0.216L-0.02 -0.196L-0.02 -0.176L-0.02 -0.156L-0.02 -0.136L-0.02 -0.116L-0.02 -0.096L-0.02 -0.076L-0.02 -0.056L-0.02 -0.036L-0.02 -0.016L-0.02 0.004L-0.02 0.024L-0.02 0.044L-0.02 0.064L-0.02 0.084L-0.02 0.104L-0.02 0.124L-0.02 0.144L-0.02 0.164L-0.02 0.184L-0.02 0.204L-0.02 0.224L-0.02 0.244L-0.02 0.264L-0.02 0.284L-0.02 0.304L-0.02 0.324L-0.02 0.344L-0.02 0.364L-0.02 0.384L-0.02 0.404L-0.02 0.404" fill="none" stroke="#16161A" stroke-width="0.145" stroke-linecap="round" stroke-linejoin="round" transform="matrix(118 0 0 118 224 162)"/><path d="M8.5 0C8.5 4.694 4.694 8.5 0 8.5C-4.694 8.5 -8.5 4.694 -8.5 0C-8.5 -4.694 -4.694 -8.5 0 -8.5C4.694 -8.5 8.5 -4.694 8.5 0" fill="#1478C9" transform="matrix(1 0 0 1 221.64 209.728)"/><path d="M3.4 0C3.4 1.878 1.878 3.4 0 3.4C-1.878 3.4 -3.4 1.878 -3.4 0C-3.4 -1.878 -1.878 -3.4 0 -3.4C1.878 -3.4 3.4 -1.878 3.4 0" fill="#FFFFFF" transform="matrix(1 0 0 1 221.64 209.728)"/></svg>