<svg xmlns="http://www.w3.org/2000/svg" width="320" height="320" viewBox="0 0 320 320"><defs><radialGradient id="bg0" gradientUnits="userSpaceOnUse" cx="-34" cy="-40" r="162" fx="-34" fy="-40"><stop offset="0" stop-color="rgba(255,255,255,0.04261986140016403)"/><stop offset="0.42" stop-color="rgba(255,255,255,0)"/><stop offset="1" stop-color="rgba(0,0,0,0.27204180139407425)"/></radialGradient><clipPath id="bc1"><path d="M0 -102.44C55.94 -102.44 98.5 -43.025 98.5 2.868C98.5 71.708 61.733 102.44 0 102.44C-61.733 102.44 -98.5 71.708 -98.5 2.868C-98.5 -43.025 -55.94 -102.44 0 -102.44ZM-5.118 -95.245C46.906 -95.245 86.487 -38.8 86.487 4.798C86.487 70.196 52.294 99.391 -5.118 99.391C-62.53 99.391 -96.723 70.196 -96.723 4.798C-96.723 -38.8 -57.143 -95.245 -5.118 -95.245Z" transform="matrix(0.74 0.01 -0.01 0.741 108.133 156.37)"/></clipPath><clipPath id="bc2"><path d="M85.918 3.16C95.052 29.992 86.635 60.053 65.212 77.104C43.79 94.155 14.44 94.155 -6.983 77.104C-28.405 60.053 -36.823 29.992 -27.688 3.16Q-8.754 -41.933 10.18 -17.39Q29.115 -48.411 48.049 -17.39Q66.984 -41.933 85.918 3.16Z" transform="matrix(0.74 0.01 -0.01 0.741 108.133 156.37)"/></clipPath><radialGradient id="bg1" gradientUnits="userSpaceOnUse" cx="-1.11" cy="-14.805" r="119.561" fx="-1.11" fy="-14.805"><stop offset="0" stop-color="rgba(0,0,0,0.1279701834013589)"/><stop offset="0.6" stop-color="rgba(0,0,0,0)"/></radialGradient><clipPath id="bc3"><path d="M85.918 3.16C95.052 29.992 86.635 60.053 65.212 77.104C43.79 94.155 14.44 94.155 -6.983 77.104C-28.405 60.053 -36.823 29.992 -27.688 3.16Q-8.754 -41.933 10.18 -17.39Q29.115 -48.411 48.049 -17.39Q66.984 -41.933 85.918 3.16Z" transform="matrix(0.74 0.01 -0.01 0.741 108.133 156.37)"/></clipPath><clipPath id="bc4"><path d="M85.918 3.16C95.052 29.992 86.635 60.053 65.212 77.104C43.79 94.155 14.44 94.155 -6.983 77.104C-28.405 60.053 -36.823 29.992 -27.688 3.16Q-8.754 -41.933 10.18 -17.39Q29.115 -48.411 48.049 -17.39Q66.984 -41.933 85.918 3.16Z" transform="matrix(0.74 0.01 -0.01 0.741 108.133 156.37)"/></clipPath></defs><path d="M-0.985 126C-0.985 132.075 -32.4 137 -71.154 137C-109.907 137 -141.323 132.075 -141.323 126C-141.323 119.925 -109.907 115 -71.154 115C-32.4 115 -0.985 119.925 -0.985 126" fill="rgba(22,22,26,0.13)" fill-opacity="0.799" transform="matrix(0.729 0 0 0.729 160 160)"/><path d="M-5.118 -96.727C47.698 -96.727 87.882 -39.423 87.882 4.84C87.882 71.233 53.168 100.873 -5.118 100.873C-63.405 100.873 -98.118 71.233 -98.118 4.84C-98.118 -39.423 -57.935 -96.727 -5.118 -96.727Z" fill="#16161A" transform="matrix(0.74 0.01 -0.01 0.741 108.133 156.37)"/><path d="M0 -104C56.792 -104 100 -43.68 100 2.912C100 72.8 62.674 104 0 104C-62.674 104 -100 72.8 -100 2.912C-100 -43.68 -56.792 -104 0 -104Z" fill="#16161A" transform="matrix(0.74 0.01 -0.01 0.741 108.133 156.37)"/><path d="M0 -104C56.792 -104 100 -43.68 100 2.912C100 72.8 62.674 104 0 104C-62.674 104 -100 72.8 -100 2.912C-100 -43.68 -56.792 -104 0 -104ZM-5.118 -96.727C47.698 -96.727 87.882 -39.423 87.882 4.84C87.882 71.233 53.168 100.873 -5.118 100.873C-63.405 100.873 -98.118 71.233 -98.118 4.84C-98.118 -39.423 -57.935 -96.727 -5.118 -96.727Z" fill="url(#bg0)" transform="matrix(0.74 0.01 -0.01 0.741 108.133 156.37)"/><g clip-path="url(#bc1)"><path d="M85.918 3.16C95.052 29.992 86.635 60.053 65.212 77.104C43.79 94.155 14.44 94.155 -6.983 77.104C-28.405 60.053 -36.823 29.992 -27.688 3.16Q-8.754 -41.933 10.18 -17.39Q29.115 -48.411 48.049 -17.39Q66.984 -41.933 85.918 3.16Z" fill="#FFFFFF" transform="matrix(0.74 0.01 -0.01 0.741 108.133 156.37)"/><g clip-path="url(#bc2)"><path d="M85.918 3.16C95.052 29.992 86.635 60.053 65.212 77.104C43.79 94.155 14.44 94.155 -6.983 77.104C-28.405 60.053 -36.823 29.992 -27.688 3.16Q-8.754 -41.933 10.18 -17.39Q29.115 -48.411 48.049 -17.39Q66.984 -41.933 85.918 3.16Z" fill="url(#bg1)" transform="matrix(0.74 0.01 -0.01 0.741 108.133 156.37)"/></g><g clip-path="url(#bc3)"><path d="M11.5 0C11.5 3.866 6.351 7 0 7C-6.351 7 -11.5 3.866 -11.5 0C-11.5 -3.866 -6.351 -7 0 -7C6.351 -7 11.5 -3.866 11.5 0" fill="rgba(255,138,168,0.42)" fill-opacity="0.7" transform="matrix(0.74 0.01 -0.009 0.669 102.169 186.901)"/><path d="M11.5 0C11.5 3.866 6.351 7 0 7C-6.351 7 -11.5 3.866 -11.5 0C-11.5 -3.866 -6.351 -7 0 -7C6.351 -7 11.5 -3.866 11.5 0" fill="rgba(255,138,168,0.42)" fill-opacity="0.7" transform="matrix(0.505 0.007 -0.009 0.669 148.633 187.501)"/></g><g clip-path="url(#bc4)"><path d="M-15.968 -1.005C-15.438 -9.434 -8.446 -16 0 -16C8.446 -16 15.438 -9.434 15.968 -1.005" fill="none" stroke="#16161A" stroke-width="12" stroke-linecap="round" stroke-linejoin="round" transform="matrix(0.729 0.009 -0.009 0.692 115.582 182.088)"/><path d="M-15.968 -1.005C-15.438 -9.434 -8.446 -16 0 -16C8.446 -16 15.438 -9.434 15.968 -1.005" fill="none" stroke="#16161A" stroke-width="12" stroke-linecap="round" stroke-linejoin="round" transform="matrix(0.587 0.008 -0.009 0.692 144.207 182.457)"/><path d="M-20.4 -3.57Q-10.2 9.69 0 -1.53Q10.2 9.69 20.4 -3.57" fill="none" stroke="#16161A" stroke-width="4.8" stroke-linecap="round" stroke-linejoin="round" transform="matrix(0.677 0.009 -0.008 0.599 124.695 198.355)"/></g></g><path d="M-10.215 -10.816C-8.289 -8.119 -9.498 -3.956 -12.914 -1.517C-16.33 0.922 -20.66 0.713 -22.585 -1.984C-24.511 -4.681 -23.302 -8.844 -19.886 -11.283C-16.47 -13.722 -12.14 -13.513 -10.215 -10.816" fill="#2A2A31" fill-opacity="0.964" transform="matrix(0.433 0.006 -0.01 0.741 184.593 171.157)"/><path d="M17.2 0C17.2 11.267 9.499 20.4 0 20.4C-9.499 20.4 -17.2 11.267 -17.2 0C-17.2 -11.267 -9.499 -20.4 0 -20.4C9.499 -20.4 17.2 -11.267 17.2 0" fill="#2A2A31" fill-opacity="0.964" transform="matrix(0.433 0.006 -0.01 0.741 184.593 171.157)"/><path d="M9.831 0C9.831 12.673 5.43 22.947 0 22.947C-5.43 22.947 -9.831 12.673 -9.831 0C-9.831 -12.673 -5.43 -22.947 0 -22.947C5.43 -22.947 9.831 -12.673 9.831 0" fill="#1478C9" fill-opacity="0.644" transform="matrix(0.702 0.235 -0.234 0.703 174.448 64.752)"/><path d="M6.703 0C6.703 10.625 3.702 19.238 0 19.238C-3.702 19.238 -6.703 10.625 -6.703 0C-6.703 -10.625 -3.702 -19.238 0 -19.238C3.702 -19.238 6.703 -10.625 6.703 0" fill="#1478C9" fill-opacity="0.644" transform="matrix(0.546 0.5 -0.499 0.547 183.016 83.346)"/><path d="M4.571 0C4.571 8.173 2.525 14.799 0 14.799C-2.525 14.799 -4.571 8.173 -4.571 0C-4.571 -8.173 -2.525 -14.799 0 -14.799C2.525 -14.799 4.571 -8.173 4.571 0" fill="#1478C9" fill-opacity="0.588" transform="matrix(0.599 0.435 -0.435 0.6 182.443 110.451)"/><path d="M-73.16 -59L73.16 -59" fill="none" stroke="#5C5C6E" stroke-width="1.6" stroke-linecap="round" stroke-linejoin="round" stroke-opacity="0.28" transform="matrix(1 0 0 1 224 162)"/><path d="M-73.16 -14.16L73.16 -14.16" fill="none" stroke="#5C5C6E" stroke-width="1.6" stroke-linecap="round" stroke-linejoin="round" stroke-opacity="0.15" transform="matrix(1 0 0 1 224 162)"/><path d="M-73.16 59L73.16 59" fill="none" stroke="#5C5C6E" stroke-width="1.6" stroke-linecap="round" stroke-linejoin="round" stroke-opacity="0.28" transform="matrix(1 0 0 1 224 162)"/><path d="M0 -0.5L-0.006 -0.481L-0.013 -0.462L-0.019 -0.443L-0.026 -0.424L-0.032 -0.405L-0.039 -0.386L-0.045 -0.367L-0.052 -0.349L-0.058 -0.33L-0.064 -0.311L-0.071 -0.292L-0.077 -0.273L-0.084 -0.254L-0.09 -0.235L-0.097 -0.216L-0.103 -0.197L-0.109 -0.178L-0.116 -0.159L-0.122 -0.14L-0.129 -0.121L-0.135 -0.102L-0.142 -0.083L-0.148 -0.064L-0.155 -0.046L-0.161 -0.027L-0.167 -0.008L-0.174 0.011L-0.18 0.03L-0.187 0.049L-0.193 0.068L-0.2 0.087L-0.206 0.106L-0.212 0.125L-0.219 0.144L-0.225 0.163L-0.232 0.182L-0.238 0.201L-0.245 0.22L-0.251 0.238L-0.258 0.257L-0.264 0.276L-0.27 0.295L-0.277 0.314L-0.283 0.333L-0.29 0.352L-0.296 0.371L-0.303 0.39L-0.309 0.409L-0.315 0.428L-0.322 0.447L-0.328 0.466L-0.335 0.485L-0.34 0.5" fill="none" stroke="rgba(22,22,26,0.13)" stroke-width="0.145" stroke-linecap="round" stroke-linejoin="round" transform="matrix(118 0 0 118 224 162)"/><path d="M0 -0.5L0.006 -0.481L0.013 -0.462L0.019 -0.443L0.026 -0.424L0.032 -0.405L0.039 -0.386L0.045 -0.367L0.052 -0.349L0.058 -0.33L0.064 -0.311L0.071 -0.292L0.077 -0.273L0.084 -0.254L0.09 -0.235L0.097 -0.216L0.103 -0.197L0.109 -0.178L0.116 -0.159L0.122 -0.14L0.129 -0.121L0.135 -0.102L0.142 -0.083L0.148 -0.064L0.155 -0.046L0.161 -0.027L0.167 -0.008L0.174 0.011L0.18 0.03L0.187 0.049L0.193 0.068L0.2 0.087L0.206 0.106L0.212 0.125L0.219 0.144L0.225 0.163L0.232 0.182L0.238 0.201L0.245 0.22L0.251 0.238L0.258 0.257L0.264 0.276L0.27 0.295L0.277 0.314L0.283 0.333L0.29 0.352L0.296 0.371L0.303 0.39L0.309 0.409L0.315 0.428L0.322 0.447L0.328 0.466L0.335 0.485L0.34 0.5" fill="none" stroke="rgba(22,22,26,0.13)" stroke-width="0.145" stroke-linecap="round" stroke-linejoin="round" transform="matrix(118 0 0 118 224 162)"/><path d="M-0.17 0.13L-0.15 0.13L-0.13 0.13L-0.11 0.13L-0.09 0.13L-0.07 0.13L-0.05 0.13L-0.03 0.13L-0.01 0.13L0.01 0.13L0.03 0.13L0.05 0.13L0.07 0.13L0.09 0.13L0.11 0.13L0.13 0.13L0.15 0.13L0.17 0.13" fill="none" stroke="rgba(22,22,26,0.13)" stroke-width="0.145" stroke-linecap="round" stroke-linejoin="round" transform="matrix(118 0 0 118 224 162)"/><path d="M0 -0.5L-0.006 -0.481L-0.013 -0.462L-0.019 -0.443L-0.026 -0.424L-0.032 -0.405L-0.039 -0.386L-0.045 -0.367L-0.052 -0.349L-0.058 -0.33L-0.064 -0.311L-0.071 -0.292L-0.077 -0.273L-0.084 -0.254L-0.09 -0.235L-0.097 -0.216L-0.103 -0.197L-0.109 -0.178L-0.116 -0.159L-0.122 -0.14L-0.129 -0.121L-0.135 -0.102L-0.142 -0.083L-0.148 -0.064L-0.155 -0.046L-0.161 -0.027L-0.167 -0.008L-0.174 0.011L-0.18 0.03L-0.187 0.049L-0.193 0.068L-0.2 0.087L-0.197 0.08" fill="none" stroke="#16161A" stroke-width="0.145" stroke-linecap="round" stroke-linejoin="round" transform="matrix(118 0 0 118 224 162)"/><path d="M8.5 0C8.5 4.694 4.694 8.5 0 8.5C-4.694 8.5 -8.5 4.694 -8.5 0C-8.5 -4.694 -4.694 -8.5 0 -8.5C4.694 -8.5 8.5 -4.694 8.5 0" fill="#1478C9" transform="matrix(1 0 0 1 200.711 171.496)"/><path d="M3.4 0C3.4 1.878 1.878 3.4 0 3.4C-1.878 3.4 -3.4 1.878 -3.4 0C-3.4 -1.878 -1.878 -3.4 0 -3.4C1.878 -3.4 3.4 -1.878 3.4 0" fill="#FFFFFF" transform="matrix(1 0 0 1 200.711 171.496)"/></svg>