<svg xmlns="http://www.w3.org/2000/svg" width="320" height="320" viewBox="0 0 320 320"><defs><clipPath id="bc1"><path d="M86.418 7.148C86.418 39.091 65.521 64.985 39.743 64.985C13.965 64.985 -6.932 39.091 -6.932 7.148C-6.932 -24.794 13.965 -50.689 39.743 -50.689C65.521 -50.689 86.418 -24.794 86.418 7.148" transform="matrix(0.69 0.014 -0.014 0.69 103.007 160.301)"/></clipPath></defs><path d="M-10.914 126C-10.914 132.075 -43.478 137 -83.649 137C-123.819 137 -156.383 132.075 -156.383 126C-156.383 119.925 -123.819 115 -83.649 115C-43.478 115 -10.914 119.925 -10.914 126" fill="rgba(22,22,26,0.13)" fill-opacity="0.862" transform="matrix(0.681 0 0 0.681 160 160)"/><path d="M3.132 0C3.132 6.271 1.73 11.355 0 11.355C-1.73 11.355 -3.132 6.271 -3.132 0C-3.132 -6.271 -1.73 -11.355 0 -11.355C1.73 -11.355 3.132 -6.271 3.132 0" fill="#1478C9" fill-opacity="0.448" transform="matrix(0.688 -0.062 0.062 0.688 170.196 116.767)"/><path d="M-10.215 -10.816C-8.289 -8.119 -9.498 -3.956 -12.914 -1.517C-16.33 0.922 -20.66 0.713 -22.585 -1.984C-24.511 -4.681 -23.302 -8.844 -19.886 -11.283C-16.47 -13.722 -12.14 -13.513 -10.215 -10.816" fill="#2A2A31" fill-opacity="0.963" transform="matrix(0.409 0.008 -0.014 0.69 171.411 173.43)"/><path d="M17.2 0C17.2 11.267 9.499 20.4 0 20.4C-9.499 20.4 -17.2 11.267 -17.2 0C-17.2 -11.267 -9.499 -20.4 0 -20.4C9.499 -20.4 17.2 -11.267 17.2 0" fill="#2A2A31" fill-opacity="0.963" transform="matrix(0.409 0.008 -0.014 0.69 171.411 173.43)"/><path d="M85.955 2.189C85.955 56.755 44.318 100.989 -7.045 100.989C-58.407 100.989 -100.045 56.755 -100.045 2.189C-100.045 -52.376 -58.407 -96.611 -7.045 -96.611C44.318 -96.611 85.955 -52.376 85.955 2.189" fill="#16161A" transform="matrix(0.69 0.014 -0.014 0.69 103.007 160.301)"/><path d="M100 0C100 57.438 55.228 104 0 104C-55.228 104 -100 57.438 -100 0C-100 -57.438 -55.228 -104 0 -104C55.228 -104 100 -57.438 100 0" fill="#16161A" transform="matrix(0.69 0.014 -0.014 0.69 103.007 160.301)"/><path d="M86.418 7.148C86.418 39.091 65.521 64.985 39.743 64.985C13.965 64.985 -6.932 39.091 -6.932 7.148C-6.932 -24.794 13.965 -50.689 39.743 -50.689C65.521 -50.689 86.418 -24.794 86.418 7.148" fill="#FFFFFF" transform="matrix(0.69 0.014 -0.014 0.69 103.007 160.301)"/><path d="M9 0C9 3.038 4.971 5.5 0 5.5C-4.971 5.5 -9 3.038 -9 0C-9 -3.038 -4.971 -5.5 0 -5.5C4.971 -5.5 9 -3.038 9 0" fill="rgba(255,138,168,0.42)" fill-opacity="0.55" transform="matrix(0.673 0.013 -0.013 0.662 107.63 179.194)"/><path d="M9 0C9 3.038 4.971 5.5 0 5.5C-4.971 5.5 -9 3.038 -9 0C-9 -3.038 -4.971 -5.5 0 -5.5C4.971 -5.5 9 -3.038 9 0" fill="rgba(255,138,168,0.42)" fill-opacity="0.55" transform="matrix(0.403 0.008 -0.013 0.662 145.148 179.944)"/><g clip-path="url(#bc1)"><path d="M12.84 2.034C11.84 8.35 6.395 13 0 13C-6.395 13 -11.84 8.35 -12.84 2.034" fill="none" stroke="#16161A" stroke-width="10" stroke-linecap="round" stroke-linejoin="round" transform="matrix(0.642 0.013 -0.014 0.686 120.806 168.365)"/><path d="M12.84 2.034C11.84 8.35 6.395 13 0 13C-6.395 13 -11.84 8.35 -12.84 2.034" fill="none" stroke="#16161A" stroke-width="10" stroke-linecap="round" stroke-linejoin="round" transform="matrix(0.483 0.01 -0.014 0.686 142.951 168.807)"/><path d="M7.484 0.814C6.05 3.628 3.159 5.4 0 5.4C-3.159 5.4 -6.05 3.628 -7.484 0.814" fill="none" stroke="#16161A" stroke-width="5" stroke-linecap="round" stroke-linejoin="round" transform="matrix(0.575 0.012 -0.013 0.639 127.325 185.846)"/></g><path d="M7.241 0C7.241 10.22 3.999 18.505 0 18.505C-3.999 18.505 -7.241 10.22 -7.241 0C-7.241 -10.22 -3.999 -18.505 0 -18.505C3.999 -18.505 7.241 -10.22 7.241 0" fill="#1478C9" fill-opacity="0.644" transform="matrix(0.657 0.213 -0.213 0.657 170.931 72.567)"/><path d="M4.447 0C4.447 8.077 2.456 14.624 0 14.624C-2.456 14.624 -4.447 8.077 -4.447 0C-4.447 -8.077 -2.456 -14.624 0 -14.624C2.456 -14.624 4.447 -8.077 4.447 0" fill="#1478C9" fill-opacity="0.589" transform="matrix(0.624 0.295 -0.295 0.624 173.231 90.552)"/><path d="M-73.16 -59L73.16 -59" fill="none" stroke="#3D3D49" stroke-width="1.6" stroke-linecap="round" stroke-linejoin="round" stroke-opacity="0.28" transform="matrix(1 0 0 1 224 162)"/><path d="M-73.16 -14.16L73.16 -14.16" fill="none" stroke="#3D3D49" stroke-width="1.6" stroke-linecap="round" stroke-linejoin="round" stroke-opacity="0.15" transform="matrix(1 0 0 1 224 162)"/><path d="M-73.16 59L73.16 59" fill="none" stroke="#3D3D49" stroke-width="1.6" stroke-linecap="round" stroke-linejoin="round" stroke-opacity="0.28" transform="matrix(1 0 0 1 224 162)"/><path d="M0.25 0.19L0.249 0.21L0.248 0.23L0.245 0.25L0.242 0.269L0.237 0.289L0.231 0.308L0.224 0.327L0.216 0.345L0.207 0.363L0.197 0.38L0.186 0.397L0.174 0.413L0.161 0.428L0.146 0.441L0.131 0.454L0.114 0.466L0.097 0.476L0.079 0.484L0.06 0.491L0.041 0.496L0.021 0.499L0.001 0.5L-0.019 0.499L-0.039 0.496L-0.058 0.491L-0.077 0.485L-0.095 0.476L-0.113 0.467L-0.129 0.455L-0.145 0.443L-0.159 0.429L-0.172 0.414L-0.185 0.398L-0.196 0.382L-0.206 0.365L-0.216 0.347L-0.223 0.329L-0.23 0.31L-0.236 0.291L-0.241 0.271L-0.245 0.252L-0.247 0.232L-0.249 0.212L-0.25 0.192L-0.249 0.172L-0.248 0.152L-0.246 0.132L-0.242 0.113L-0.237 0.093L-0.232 0.074L-0.225 0.055L-0.217 0.037L-0.208 0.019L-0.198 0.002L-0.187 -0.015L-0.175 -0.031L-0.162 -0.046L-0.148 -0.06L-0.132 -0.073L-0.116 -0.084L-0.099 -0.095L-0.081 -0.103L-0.062 -0.11L-0.043 -0.115L-0.023 -0.119L-0.003 -0.12L0.017 -0.119L0.037 -0.116L0.056 -0.112L0.075 -0.105L0.093 -0.097L0.111 -0.088L0.128 -0.077L0.143 -0.064L0.158 -0.05L0.171 -0.036L0.184 -0.02L0.195 -0.004L0.205 0.013L0.215 0.031L0.223 0.05L0.23 0.068L0.236 0.087L0.241 0.107L0.245 0.126L0.247 0.146L0.249 0.166L0.25 0.186L0.25 0.19" fill="none" stroke="rgba(22,22,26,0.13)" stroke-width="0.145" stroke-linecap="round" stroke-linejoin="round" transform="matrix(118 0 0 118 224 162)"/><path d="M0.25 -0.12L0.25 -0.1L0.25 -0.08L0.25 -0.06L0.25 -0.04L0.25 -0.02L0.25 0L0.25 0.02L0.25 0.04L0.25 0.06L0.25 0.08L0.25 0.1L0.25 0.12L0.25 0.14L0.25 0.16L0.25 0.18L0.25 0.2L0.25 0.22L0.25 0.24L0.25 0.26L0.25 0.28L0.25 0.3L0.25 0.32L0.25 0.34L0.25 0.36L0.25 0.38L0.25 0.4L0.25 0.42L0.25 0.44L0.25 0.46L0.25 0.48L0.25 0.5" fill="none" stroke="rgba(22,22,26,0.13)" stroke-width="0.145" stroke-linecap="round" stroke-linejoin="round" transform="matrix(118 0 0 118 224 162)"/><path d="M0.25 0.19L0.249 0.21L0.248 0.23L0.245 0.25L0.242 0.269L0.237 0.289L0.231 0.308L0.224 0.327L0.216 0.345L0.207 0.363L0.197 0.38L0.186 0.397L0.174 0.413L0.161 0.428L0.146 0.441L0.131 0.454L0.114 0.466L0.097 0.476L0.079 0.484L0.06 0.491L0.041 0.496L0.021 0.499L0.001 0.5L-0.019 0.499L-0.039 0.496L-0.058 0.491L-0.077 0.485L-0.095 0.476L-0.113 0.467L-0.129 0.455L-0.145 0.443L-0.159 0.429L-0.172 0.414L-0.185 0.398L-0.196 0.382L-0.206 0.365L-0.216 0.347L-0.223 0.329L-0.23 0.31L-0.236 0.291L-0.241 0.271L-0.245 0.252L-0.247 0.232L-0.249 0.212L-0.25 0.192L-0.249 0.172L-0.248 0.152L-0.246 0.132L-0.242 0.113L-0.237 0.093L-0.232 0.074L-0.225 0.055L-0.217 0.037L-0.208 0.019L-0.198 0.002L-0.187 -0.015L-0.175 -0.031L-0.162 -0.046L-0.148 -0.06L-0.132 -0.073L-0.116 -0.084L-0.099 -0.095L-0.081 -0.103L-0.062 -0.11L-0.043 -0.115L-0.023 -0.119L-0.003 -0.12L0.017 -0.119L0.037 -0.116L0.056 -0.112L0.075 -0.105L0.093 -0.097L0.111 -0.088L0.128 -0.077L0.143 -0.064L0.158 -0.05L0.171 -0.036L0.184 -0.02L0.195 -0.004L0.187 -0.016" fill="none" stroke="#16161A" stroke-width="0.145" stroke-linecap="round" stroke-linejoin="round" transform="matrix(118 0 0 118 224 162)"/><path d="M8.5 0C8.5 4.694 4.694 8.5 0 8.5C-4.694 8.5 -8.5 4.694 -8.5 0C-8.5 -4.694 -4.694 -8.5 0 -8.5C4.694 -8.5 8.5 -4.694 8.5 0" fill="#1478C9" transform="matrix(1 0 0 1 246.032 160.169)"/><path d="M3.4 0C3.4 1.878 1.878 3.4 0 3.4C-1.878 3.4 -3.4 1.878 -3.4 0C-3.4 -1.878 -1.878 -3.4 0 -3.4C1.878 -3.4 3.4 -1.878 3.4 0" fill="#FFFFFF" transform="matrix(1 0 0 1 246.032 160.169)"/></svg>