<svg xmlns="http://www.w3.org/2000/svg" width="320" height="320" viewBox="0 0 320 320"><defs><linearGradient id="bg0" gradientUnits="userSpaceOnUse" x1="0" y1="-104" x2="0" y2="104"><stop offset="0" stop-color="#3b3b3f"/><stop offset="0.55" stop-color="#16161A"/><stop offset="1" stop-color="#0f0f12"/></linearGradient><radialGradient id="bg1" gradientUnits="userSpaceOnUse" cx="-28" cy="-35.36" r="115" fx="-28" fy="-35.36"><stop offset="0" stop-color="#FFFFFF"/><stop offset="1" stop-color="rgba(255,255,255,0)"/></radialGradient><linearGradient id="bg2" gradientUnits="userSpaceOnUse" x1="0" y1="-43.642" x2="0" y2="80.025"><stop offset="0" stop-color="#FFFFFF"/><stop offset="1" stop-color="#F1F1F5"/></linearGradient><clipPath id="bc1"><path d="M90.554 18.191C90.554 52.341 66.936 80.025 37.803 80.025C8.67 80.025 -14.948 52.341 -14.948 18.191C-14.948 -15.958 8.67 -43.642 37.803 -43.642C66.936 -43.642 90.554 -15.958 90.554 18.191" transform="matrix(0.69 0.014 -0.014 0.69 103.007 160.301)"/></clipPath></defs><path d="M-10.812 126C-10.812 132.075 -43.422 137 -83.649 137C-123.875 137 -156.486 132.075 -156.486 126C-156.486 119.925 -123.875 115 -83.649 115C-43.422 115 -10.812 119.925 -10.812 126" fill="rgba(22,22,26,0.13)" fill-opacity="0.862" transform="matrix(0.681 0 0 0.681 160 160)"/><path d="M-10.215 -10.816C-8.289 -8.119 -9.498 -3.956 -12.914 -1.517C-16.33 0.922 -20.66 0.713 -22.585 -1.984C-24.511 -4.681 -23.302 -8.844 -19.886 -11.283C-16.47 -13.722 -12.14 -13.513 -10.215 -10.816" fill="#2A2A31" fill-opacity="0.963" transform="matrix(0.399 0.008 -0.014 0.69 172.002 178.336)"/><path d="M17.2 0C17.2 11.267 9.499 20.4 0 20.4C-9.499 20.4 -17.2 11.267 -17.2 0C-17.2 -11.267 -9.499 -20.4 0 -20.4C9.499 -20.4 17.2 -11.267 17.2 0" fill="#2A2A31" fill-opacity="0.963" transform="matrix(0.399 0.008 -0.014 0.69 172.002 178.336)"/><path d="M86.3 1.641C86.3 56.207 44.663 100.441 -6.7 100.441C-58.062 100.441 -99.7 56.207 -99.7 1.641C-99.7 -52.924 -58.062 -97.159 -6.7 -97.159C44.663 -97.159 86.3 -52.924 86.3 1.641" fill="url(#bg0)" transform="matrix(0.69 0.014 -0.014 0.69 103.007 160.301)"/><path d="M100 0C100 57.438 55.228 104 0 104C-55.228 104 -100 57.438 -100 0C-100 -57.438 -55.228 -104 0 -104C55.228 -104 100 -57.438 100 0" fill="url(#bg0)" transform="matrix(0.69 0.014 -0.014 0.69 103.007 160.301)"/><path d="M100 0C100 57.438 55.228 104 0 104C-55.228 104 -100 57.438 -100 0C-100 -57.438 -55.228 -104 0 -104C55.228 -104 100 -57.438 100 0" fill="url(#bg1)" fill-opacity="0.1" transform="matrix(0.69 0.014 -0.014 0.69 103.007 160.301)"/><path d="M90.554 18.191C90.554 52.341 66.936 80.025 37.803 80.025C8.67 80.025 -14.948 52.341 -14.948 18.191C-14.948 -15.958 8.67 -43.642 37.803 -43.642C66.936 -43.642 90.554 -15.958 90.554 18.191" fill="url(#bg2)" transform="matrix(0.69 0.014 -0.014 0.69 103.007 160.301)"/><path d="M11.5 0C11.5 3.866 6.351 7 0 7C-6.351 7 -11.5 3.866 -11.5 0C-11.5 -3.866 -6.351 -7 0 -7C6.351 -7 11.5 -3.866 11.5 0" fill="rgba(255,138,168,0.42)" fill-opacity="0.7" transform="matrix(0.683 0.014 -0.013 0.627 103.148 187.898)"/><path d="M11.5 0C11.5 3.866 6.351 7 0 7C-6.351 7 -11.5 3.866 -11.5 0C-11.5 -3.866 -6.351 -7 0 -7C6.351 -7 11.5 -3.866 11.5 0" fill="rgba(255,138,168,0.42)" fill-opacity="0.7" transform="matrix(0.396 0.008 -0.013 0.627 143.698 188.709)"/><g clip-path="url(#bc1)"><path d="M-15.968 -1.005C-15.438 -9.434 -8.446 -16 0 -16C8.446 -16 15.438 -9.434 15.968 -1.005" fill="none" stroke="#16161A" stroke-width="12" stroke-linecap="round" stroke-linejoin="round" transform="matrix(0.657 0.013 -0.013 0.662 116.829 179.761)"/><path d="M-15.968 -1.005C-15.438 -9.434 -8.446 -16 0 -16C8.446 -16 15.438 -9.434 15.968 -1.005" fill="none" stroke="#16161A" stroke-width="12" stroke-linecap="round" stroke-linejoin="round" transform="matrix(0.483 0.01 -0.013 0.662 141.985 180.263)"/><path d="M-20.4 -3.57Q-10.2 9.69 0 -1.53Q10.2 9.69 20.4 -3.57" fill="none" stroke="#16161A" stroke-width="4.8" stroke-linecap="round" stroke-linejoin="round" transform="matrix(0.587 0.012 -0.012 0.594 124.201 194.424)"/></g><path d="M7.376 0C7.376 10.22 4.073 18.505 0 18.505C-4.073 18.505 -7.376 10.22 -7.376 0C-7.376 -10.22 -4.073 -18.505 0 -18.505C4.073 -18.505 7.376 -10.22 7.376 0" fill="#1478C9" fill-opacity="0.644" transform="matrix(0.656 0.216 -0.216 0.656 170.156 71.417)"/><path d="M4.57 0C4.57 8.077 2.524 14.624 0 14.624C-2.524 14.624 -4.57 8.077 -4.57 0C-4.57 -8.077 -2.524 -14.624 0 -14.624C2.524 -14.624 4.57 -8.077 4.57 0" fill="#1478C9" fill-opacity="0.608" transform="matrix(0.601 0.34 -0.34 0.601 173.473 89.422)"/><path d="M3.081 0C3.081 6.271 1.701 11.355 0 11.355C-1.701 11.355 -3.081 6.271 -3.081 0C-3.081 -6.271 -1.701 -11.355 0 -11.355C1.701 -11.355 3.081 -6.271 3.081 0" fill="#1478C9" fill-opacity="0.476" transform="matrix(0.69 0.037 -0.037 0.69 170.842 115.645)"/><path d="M-73.16 -59L73.16 -59" fill="none" stroke="#5C5C6E" stroke-width="1.6" stroke-linecap="round" stroke-linejoin="round" stroke-opacity="0.28" transform="matrix(1 0 0 1 224 162)"/><path d="M-73.16 -14.16L73.16 -14.16" fill="none" stroke="#5C5C6E" stroke-width="1.6" stroke-linecap="round" stroke-linejoin="round" stroke-opacity="0.15" transform="matrix(1 0 0 1 224 162)"/><path d="M-73.16 59L73.16 59" fill="none" stroke="#5C5C6E" stroke-width="1.6" stroke-linecap="round" stroke-linejoin="round" stroke-opacity="0.28" transform="matrix(1 0 0 1 224 162)"/><path d="M-0.252 -0.329L-0.245 -0.347L-0.236 -0.365L-0.225 -0.382L-0.214 -0.399L-0.201 -0.414L-0.187 -0.428L-0.172 -0.442L-0.156 -0.454L-0.139 -0.464L-0.121 -0.474L-0.103 -0.482L-0.084 -0.488L-0.065 -0.494L-0.045 -0.497L-0.025 -0.499L-0.005 -0.5L0.015 -0.499L0.034 -0.497L0.054 -0.492L0.073 -0.487L0.092 -0.48L0.11 -0.472L0.128 -0.462L0.144 -0.451L0.16 -0.438L0.175 -0.425L0.188 -0.411L0.201 -0.395L0.212 -0.378L0.222 -0.361L0.231 -0.343L0.238 -0.324L0.244 -0.305L0.248 -0.286L0.251 -0.266L0.252 -0.246L0.252 -0.226L0.25 -0.206L0.246 -0.186L0.242 -0.167L0.235 -0.148L0.227 -0.13L0.218 -0.112L0.208 -0.095L0.196 -0.079L0.183 -0.063L0.171 -0.048L0.158 -0.032L0.146 -0.017L0.133 -0.001L0.121 0.015L0.108 0.03L0.096 0.046L0.083 0.062L0.071 0.077L0.058 0.093L0.046 0.108L0.033 0.124L0.021 0.14L0.008 0.155L-0.004 0.171L-0.017 0.186L-0.029 0.202L-0.042 0.218L-0.054 0.233L-0.067 0.249L-0.079 0.265L-0.092 0.28L-0.104 0.296L-0.117 0.311L-0.129 0.327L-0.142 0.343L-0.154 0.358L-0.167 0.374L-0.179 0.389L-0.192 0.405L-0.204 0.421L-0.217 0.436L-0.229 0.452L-0.242 0.468L-0.254 0.483L-0.267 0.499L-0.249 0.5L-0.229 0.5L-0.209 0.5L-0.189 0.5L-0.169 0.5L-0.149 0.5L-0.129 0.5L-0.109 0.5L-0.089 0.5L-0.069 0.5L-0.049 0.5L-0.029 0.5L-0.009 0.5L0.011 0.5L0.031 0.5L0.051 0.5L0.071 0.5L0.091 0.5L0.111 0.5L0.131 0.5L0.151 0.5L0.171 0.5L0.191 0.5L0.211 0.5L0.231 0.5L0.251 0.5L0.252 0.5" fill="none" stroke="rgba(22,22,26,0.13)" stroke-width="0.145" stroke-linecap="round" stroke-linejoin="round" transform="matrix(118 0 0 118 224 162)"/><path d="M-0.252 -0.329L-0.245 -0.347L-0.236 -0.365L-0.225 -0.382L-0.214 -0.399L-0.201 -0.414L-0.187 -0.428L-0.172 -0.442L-0.156 -0.454L-0.139 -0.464L-0.121 -0.474L-0.103 -0.482L-0.084 -0.488L-0.065 -0.494L-0.045 -0.497L-0.025 -0.499L-0.005 -0.5L0.015 -0.499L0.034 -0.497L0.054 -0.492L0.073 -0.487L0.092 -0.48L0.11 -0.472L0.128 -0.462L0.144 -0.451L0.16 -0.438L0.175 -0.425L0.188 -0.411L0.201 -0.395L0.212 -0.378L0.222 -0.361L0.231 -0.343L0.238 -0.324L0.244 -0.305L0.248 -0.286L0.251 -0.266L0.252 -0.246L0.252 -0.226L0.25 -0.206L0.246 -0.186L0.242 -0.167L0.235 -0.148L0.227 -0.13L0.218 -0.112L0.208 -0.095L0.196 -0.079L0.183 -0.063L0.171 -0.048L0.158 -0.032L0.146 -0.017L0.133 -0.001L0.121 0.015L0.108 0.03L0.096 0.046L0.083 0.062L0.071 0.077L0.058 0.093L0.046 0.108L0.033 0.124L0.021 0.14L0.008 0.155L-0.004 0.171L-0.017 0.186L-0.029 0.202L-0.042 0.218L-0.029 0.202" fill="none" stroke="#16161A" stroke-width="0.145" stroke-linecap="round" stroke-linejoin="round" transform="matrix(118 0 0 118 224 162)"/><path d="M8.5 0C8.5 4.694 4.694 8.5 0 8.5C-4.694 8.5 -8.5 4.694 -8.5 0C-8.5 -4.694 -4.694 -8.5 0 -8.5C4.694 -8.5 8.5 -4.694 8.5 0" fill="#1478C9" transform="matrix(1 0 0 1 220.565 185.808)"/><path d="M3.4 0C3.4 1.878 1.878 3.4 0 3.4C-1.878 3.4 -3.4 1.878 -3.4 0C-3.4 -1.878 -1.878 -3.4 0 -3.4C1.878 -3.4 3.4 -1.878 3.4 0" fill="#FFFFFF" transform="matrix(1 0 0 1 220.565 185.808)"/></svg>